<svg xmlns="http://www.w3.org/2000/svg" viewBox="0 0 404.24 387.78"><defs><style>.cls-1{fill:#231f20;}</style></defs><title>cleaning</title><g id="Layer_2" data-name="Layer 2"><g id="icons"><path class="cls-1" d="M180.76,0H0V11.81H180.76ZM78.88,211.07a11.5,11.5,0,0,0,23,0V102.15h-23Zm319.41-33.3H386.14v-8.51h-5.32l.24-5.09h2.25a10.69,10.69,0,0,0,0-21.38H178.58a10.69,10.69,0,1,0,0,21.38h2.25l.24,5.09h-5.32v8.51H163.6a6,6,0,0,0-5.95,5.95c0,40.17,7.38,70.27,22.56,92a93.12,93.12,0,0,0,6.22,7.95l4.25,90.68a14.24,14.24,0,0,0,14,13.4H357.17a14.24,14.24,0,0,0,14-13.4l4.25-90.68a91.58,91.58,0,0,0,6.22-7.95c15.18-21.76,22.56-51.86,22.56-92A6,6,0,0,0,398.29,177.77ZM169.6,189.67h6.15v9.22h6.71l2.94,62.73C175.39,243.68,170.2,220,169.6,189.67Zm206.89,72,2.94-62.73h6.71v-9.22h6.15C391.69,220,386.5,243.69,376.49,261.62ZM180.76,26.69H0V49.54H60.82l7.53,37.73h44.06l7.53-37.73h60.82Z"/></g></g></svg>