<svg xmlns="http://www.w3.org/2000/svg" viewBox="0 0 125.74 131.09"><defs><style>.cls-1{fill-rule:evenodd;}</style></defs><title>Asset 1</title><g id="Layer_2" data-name="Layer 2"><g id="Layer_1-2" data-name="Layer 1"><path class="cls-1" d="M105.83,55.1,96.42,77.74,86.91,54.86H21.79a7.29,7.29,0,0,0-7.27,7.27v61.68a7.29,7.29,0,0,0,7.27,7.28H45.11V112.68A2.68,2.68,0,0,1,47.78,110H78a2.68,2.68,0,0,1,2.67,2.68v18.41H104a7.29,7.29,0,0,0,7.27-7.28V62.13A7.31,7.31,0,0,0,105.83,55.1Z"/><path class="cls-1" d="M111.34,42.48c-1.38,3.17-2.67,6.05-3.65,8.28h.55a8,8,0,0,1,5.31,2h12.19Z"/><path class="cls-1" d="M85.15,50.76C81.28,42,72.72,23.2,72.72,16.7c0-.61,0-1.21.07-1.8L62.87,7.8l-26,18.6V19.08a1.43,1.43,0,0,0-1.43-1.43H32.29a1.44,1.44,0,0,0-1.44,1.43V30.71L0,52.78H12.18a8,8,0,0,1,5.32-2Z"/><path class="cls-1" d="M96.42,70.73l8.31-20c2.18-5.25,11.47-24.79,11.47-31a19.78,19.78,0,0,0-39.56,0c0,6.19,9.29,25.73,11.47,31Zm0-56.74a5.79,5.79,0,1,1-5.8,5.79A5.8,5.8,0,0,1,96.42,14Z"/></g></g></svg>