<svg xmlns="http://www.w3.org/2000/svg" viewBox="0 0 399.96 404.12"><defs><style>.cls-1{fill:#231f20;}</style></defs><title>Asset 1</title><g id="Layer_2" data-name="Layer 2"><g id="_1" data-name="1"><circle class="cls-1" cx="121.32" cy="47.24" r="47.24"/><path class="cls-1" d="M43,195.73l14.09-70.1a21.71,21.71,0,0,0-42.56-8.55L.43,187.17A21.71,21.71,0,0,0,43,195.73Z"/><path class="cls-1" d="M338.4,232a11.26,11.26,0,0,0-6.33-3.47l-4.68-.84a11.37,11.37,0,0,1-6.66-3.85L295.49,200a11.36,11.36,0,0,0-8.67-4H219.66a16.93,16.93,0,0,0-12.86-12.33l-31-6.56a17,17,0,0,1-11-7.87L134.3,118.45a13.87,13.87,0,0,0-11.9-6.73H85.89A13.86,13.86,0,0,0,72.2,123.37L47.53,276.09a13.63,13.63,0,0,1-.89,3.11l-38,91.38A24.23,24.23,0,0,0,52.55,391L101,307.23a3.24,3.24,0,0,1,6,1.14c2.87,19.47,6.65,66,6.65,66a24.58,24.58,0,1,0,49.16,0l-4.13-62.74a29.11,29.11,0,0,0-1.27-6.92c-8-25.19-24.37-56.21-24.37-56.21a13.84,13.84,0,0,1-1.47-8.57l1.28-8.56H167c7.09,0,15.19-9.63,20.18-16.68l13.3,2.25a16.92,16.92,0,0,0,18.13-9.55l62.26-.26a11.35,11.35,0,0,1,7.85,3.11l22.66,21.45a11.28,11.28,0,0,1,3.54,8.63,11.4,11.4,0,0,0,2.42,7.4l.95,1.21,21.39-15.64ZM158.45,221.2H134.39l1.2-8a7,7,0,0,1,8.06-5.85l30.6,5.17C170.89,216.75,165.64,221.2,158.45,221.2Z"/><path class="cls-1" d="M339,251.2a6.06,6.06,0,1,0-6.06,6.05A6.05,6.05,0,0,0,339,251.2Z"/><path class="cls-1" d="M369,257.25A6.05,6.05,0,1,0,363,263.3,6.05,6.05,0,0,0,369,257.25Z"/><path class="cls-1" d="M393.91,261.42a6.05,6.05,0,1,0,6,6.05A6.05,6.05,0,0,0,393.91,261.42Z"/><path class="cls-1" d="M371.89,282.48a6.06,6.06,0,1,0,6.05,6A6.05,6.05,0,0,0,371.89,282.48Z"/><path class="cls-1" d="M348.25,279.57a6.05,6.05,0,1,0-6.05,6.05A6.05,6.05,0,0,0,348.25,279.57Z"/><path class="cls-1" d="M348.25,306.71a6.06,6.06,0,1,0,6.05,6.05A6.05,6.05,0,0,0,348.25,306.71Z"/></g></g></svg>